<svg width="60" height="50" viewBox="0 0 60 50" fill="none" xmlns="http://www.w3.org/2000/svg">
<path d="M14.9074 3.20871H8.92916L4.59492 7.24398L8.18198 10.8309L14.9074 14.7166L22.3798 20.0969L24.6217 26.075L22.3798 29.5124L14.9074 26.075L6.08945 25.1783L2.50269 29.5124V33.996H8.18198L18.3447 39.0774L24.6217 45.3544L33.1405 47.4467L36.5307 47.9459L41.0967 47.3232C41.0967 47.3232 43.8535 46.2912 47.5758 43.8322C51.2982 41.3732 52.9899 40.637 52.9899 40.637L55.8573 33.996L57.5013 17.7057L50.0286 5.00222L44.2 2.1626L41.0615 5.00222L35.3823 2.1626L30.1515 6.19781L24.6217 8.4396L21.6327 7.24398L14.9074 3.20871Z" fill="white"/>
<path d="M39.7979 0.980469C43.6103 -0.767459 47.2524 -0.17842 50.7266 2.75L50.748 2.75781C51.6086 3.5033 52.435 4.38255 53.2314 5.39258C54.6256 7.12185 55.9066 9.28412 57.0752 11.877C57.8349 13.5559 58.3872 15.4708 58.7324 17.6201C59.1558 20.1457 59.2734 23.0023 59.0869 26.1904C59.0854 26.2282 59.0853 26.2634 59.082 26.2998C59.0802 26.5956 59.0725 26.8825 59.0605 27.1631C59.0567 27.181 59.0543 27.1987 59.0508 27.2197C59.0508 31.5916 56.6651 35.7648 56.4912 36.5459C55.9058 37.7139 55.2489 38.8087 54.5195 39.832C54.4977 39.8539 54.4767 39.8756 54.459 39.8945C54.3507 40.035 54.2419 40.1745 54.1338 40.3145L54.1445 40.332C54.1415 40.3352 54.1015 40.3745 54.0322 40.4463C53.9497 40.5532 53.8675 40.6604 53.7852 40.7676C53.6222 40.9785 53.434 41.1448 53.2217 41.2676C52.1591 42.3235 50.3698 44.0277 48.8887 45.0586C46.6229 46.6357 42.4912 48.3984 42.4912 48.3984L42.4688 48.374C42.4243 48.3919 42.3797 48.4105 42.333 48.4258C41.6741 48.6476 41.0053 48.8484 40.3271 49.0273C40.3036 49.0335 40.275 49.0395 40.2461 49.0459C39.7119 49.1623 39.1828 49.2642 38.6592 49.3506L38.624 49.3486C37.4844 49.5061 36.3671 49.5947 35.2744 49.6104C31.7206 49.4152 24.2802 47.545 20.9971 44.001C20.9453 43.9466 20.8906 43.8931 20.8369 43.8418C20.8063 43.8128 20.7755 43.7841 20.7461 43.7578C20.5958 43.5942 20.4568 43.4254 20.3242 43.2549C17.0711 39.5527 13.1149 37.4502 8.45605 36.9482L8.4707 36.9414C5.39325 36.6207 3.21581 35.9165 1.93848 34.832C0.171622 33.4734 -0.387289 31.6397 0.261719 29.3291L0.269531 29.3066C1.30861 25.5299 3.77179 23.4571 7.6582 23.085L7.66504 23.1006C11.0868 22.785 13.8338 23.1723 15.9053 24.2646C17.6668 25.1509 19.3963 25.9383 21.0918 26.624L21.1143 26.6328C21.5577 26.8215 21.9649 26.9763 22.3359 27.0967C22.6312 26.4123 22.5744 25.5841 22.1611 24.6143C21.2388 22.5325 19.1747 20.0005 15.9707 17.0166C15.9607 17.009 15.9509 17.003 15.9414 16.9941C14.634 16.0867 12.3998 15.0172 9.23633 13.7881L9.21387 13.7793C4.65685 12.0221 2.5526 9.38841 2.90527 5.87988L2.90625 5.84277C3.01441 3.79436 3.93505 2.3204 5.66406 1.4209C6.98708 0.656876 8.94225 0.363721 11.5273 0.542969C15.5681 0.792168 19.722 2.70428 23.9932 6.27832C24.1453 6.10248 24.2994 5.95712 24.4531 5.84082C24.478 5.82304 24.5011 5.80536 24.5205 5.79004C24.9984 5.40953 25.4958 5.10392 26.0088 4.87207C27.2556 4.29694 28.5391 4.081 29.8604 4.22461C30.0823 3.93068 30.3687 3.60672 30.7207 3.25098C30.7394 3.22948 30.7608 3.20857 30.7812 3.18848C31.6129 2.28035 32.3333 1.70711 32.9414 1.46973C34.768 0.580104 36.7589 0.596349 38.9199 1.51758C39.2109 1.28472 39.5055 1.10545 39.7979 0.980469ZM48.2246 5.71973C46.4806 4.25107 44.6691 3.70129 42.792 4.07422C44.0489 5.22048 45.5255 6.80267 47.2197 8.82129C47.5682 9.22806 47.7211 9.69858 47.6777 10.2334C47.6316 10.7694 47.4033 11.2099 46.9932 11.5557C46.5854 11.9046 46.114 12.0575 45.5801 12.0137C45.0442 11.9653 44.6045 11.7373 44.2588 11.3271C41.8443 8.45828 39.9634 6.59481 38.6162 5.74023L38.5938 5.7334C37.091 4.79862 35.7374 4.559 34.5371 5.01562C34.3321 5.1375 34.0817 5.35805 33.7842 5.67383C35.4152 6.79871 37.4251 9.01331 39.8125 12.3145C40.1218 12.7486 40.2338 13.2323 40.1445 13.7646C40.0571 14.2919 39.7951 14.7123 39.3594 15.0234C38.9275 15.3405 38.4455 15.4563 37.916 15.3711C37.3834 15.2861 36.9572 15.0273 36.6416 14.5938C34.2786 11.3224 32.4194 9.32087 31.0605 8.58887C29.8522 8.00862 28.6991 7.95134 27.6055 8.41797C27.3935 8.51223 27.1873 8.63531 26.9883 8.78516C26.9486 8.82821 26.9114 8.87506 26.874 8.92578C28.2457 10.3395 29.8601 12.1915 31.7188 14.4805C32.058 14.8958 32.2025 15.3691 32.1484 15.9043C32.0911 16.4421 31.8562 16.8782 31.4404 17.2188C31.0255 17.5589 30.5499 17.7016 30.0146 17.6475C29.4794 17.5911 29.0418 17.3553 28.7012 16.9395C26.5163 14.2494 24.687 12.1986 23.2129 10.7861L23.1572 10.7402L23.1504 10.7256C23.1406 10.7182 23.1324 10.7109 23.123 10.7021C23.0905 10.6762 23.0605 10.6476 23.0312 10.6191C18.9559 6.82214 15.0305 4.76062 11.2529 4.43359C9.60147 4.31361 8.34791 4.45163 7.49121 4.8457C7.04935 5.0993 6.81597 5.50192 6.78809 6.05176L6.78613 6.08691C6.8176 7.82163 8.09556 9.17349 10.6182 10.1406L10.6406 10.1494C14.4004 11.6116 16.9984 12.8972 18.4355 14.0029C18.4925 14.0442 18.5472 14.0836 18.5996 14.127C22.3502 17.6215 24.7338 20.6148 25.749 23.1055C27.1207 26.3449 26.658 28.8996 24.3613 30.7705C24.1479 30.9564 23.9051 31.0891 23.6348 31.168C23.3635 31.245 23.0873 31.2628 22.8057 31.2217C21.9756 31.1094 20.9135 30.7791 19.624 30.2354L19.6016 30.2256C17.8202 29.4952 16.004 28.6583 14.1533 27.7178C12.6028 26.9767 10.558 26.7233 8.01562 26.958L8.02246 26.9736C5.91494 27.1685 4.58226 28.2878 4.02441 30.3359L4.0166 30.3584C3.85152 30.9469 3.96899 31.4211 4.37109 31.7764C5.26647 32.4164 6.76485 32.8443 8.86133 33.0635L8.875 33.0566C14.5242 33.6536 19.3185 36.1979 23.2588 40.6865C23.2888 40.7265 23.3199 40.7658 23.3477 40.8057C23.4293 40.9115 23.516 41.0142 23.6104 41.1143C23.658 41.1631 23.7069 41.2118 23.7549 41.2588L23.7705 41.2734C23.8024 41.3029 23.8343 41.3317 23.8623 41.3574C26.6477 44.361 29.5343 45.8007 32.5244 45.6738C32.8031 45.5989 33.1151 45.6057 33.46 45.6973C33.8834 45.7294 34.3153 45.741 34.7568 45.7354L34.7793 45.7432C35.8558 45.7402 36.9615 45.657 38.0986 45.4941L38.0625 45.4932C38.4866 45.4295 38.9147 45.3551 39.3486 45.2695C39.3743 45.2634 39.4023 45.2566 39.4297 45.252C39.899 45.1255 40.3626 44.9847 40.8223 44.8369C42.2963 44.3208 44.8364 43.3362 46.5986 42.1191C48.9044 40.5267 51.3521 37.4309 51.9072 36.7109C52.6643 35.5251 53.3188 34.2354 53.8643 32.8379L53.8809 32.7598L53.8984 32.7168C54.2846 31.6472 54.6051 30.5266 54.8555 29.3525L54.8711 29.3457C55.0073 28.7078 55.1118 27.9007 55.1865 26.9287L55.1777 26.9863C55.1882 26.7196 55.1949 26.4447 55.1963 26.1602C55.1995 26.1259 55.2 26.0895 55.2012 26.0508C55.3748 23.1438 55.2699 20.5414 54.8896 18.2432C54.6042 16.4581 54.148 14.8668 53.5244 13.4707C52.5114 11.2139 51.404 9.3294 50.2002 7.81836L50.1934 7.80371C49.5549 7.00103 48.8914 6.3036 48.2031 5.71191L48.2246 5.71973Z" fill="black"/>
</svg>
