<svg width="22" height="22" viewBox="0 0 22 22" fill="none" xmlns="http://www.w3.org/2000/svg">
<path d="M14.797 2.14219C16.2144 1.49242 17.5688 1.71165 18.8605 2.80039L18.8683 2.80332C19.1881 3.08043 19.4951 3.4074 19.7911 3.78281C20.3095 4.42574 20.7854 5.22995 21.2198 6.19394C21.5022 6.8181 21.7077 7.52973 21.8361 8.32871C21.9935 9.26771 22.0382 10.3299 21.9689 11.5152C21.9683 11.5293 21.9672 11.5427 21.9659 11.5562C21.9653 11.6661 21.9635 11.7724 21.9591 11.8766C21.9577 11.8833 21.9565 11.8901 21.9552 11.898C21.9552 13.5227 21.0684 15.0734 21.003 15.3648C20.7854 15.7991 20.5418 16.207 20.2706 16.5875C20.2625 16.5956 20.2538 16.6029 20.2472 16.61C20.2072 16.6619 20.167 16.7135 20.1271 16.7652L20.131 16.773C20.1291 16.775 20.1132 16.7898 20.087 16.817C20.0568 16.8561 20.0273 16.8959 19.9972 16.9352C19.9354 17.0151 19.8632 17.0768 19.7823 17.1227C19.3868 17.5155 18.7257 18.1478 18.1769 18.5299C17.3345 19.1162 15.798 19.7721 15.798 19.7721L15.7872 19.7604C15.7712 19.7668 15.7562 19.7763 15.7394 19.7818C15.4944 19.8643 15.2455 19.9389 14.9933 20.0055C14.9858 20.0074 14.9769 20.0093 14.9679 20.0113L14.963 20.0123C14.7645 20.0556 14.5677 20.0935 14.3732 20.1256H14.3605C13.9369 20.1841 13.5215 20.2164 13.1154 20.2223C11.7941 20.1497 9.02744 19.4548 7.80676 18.1373C7.78747 18.1171 7.76719 18.0968 7.74719 18.0777C7.73585 18.067 7.72487 18.0562 7.71398 18.0465C7.65815 17.9857 7.60602 17.9233 7.55676 17.86C6.34724 16.4835 4.87584 15.7008 3.14367 15.5143L3.14953 15.5123C2.00535 15.3931 1.19572 15.1313 0.720819 14.7281C0.0639697 14.223 -0.143509 13.5412 0.0977724 12.6822L0.100702 12.6734C0.487085 11.2695 1.40297 10.4993 2.84777 10.3609L2.84973 10.3658C4.12181 10.2485 5.14307 10.3934 5.9132 10.7994C6.56815 11.1289 7.21154 11.4214 7.84191 11.6764L7.8507 11.6793C8.0155 11.7494 8.16691 11.8074 8.3048 11.8521C8.41457 11.5977 8.39302 11.2899 8.23937 10.9293C7.89646 10.1553 7.12891 9.21354 5.93762 8.1041C5.93403 8.10141 5.9303 8.0995 5.92687 8.09629C5.44077 7.75891 4.60983 7.36088 3.43371 6.90391L3.4259 6.90098C1.73164 6.24768 0.949072 5.26792 1.08019 3.96348C1.08038 3.95886 1.08114 3.95496 1.08117 3.95078C1.12134 3.1891 1.46367 2.6407 2.10656 2.30625C2.59845 2.02231 3.32531 1.91345 4.28625 1.98008C5.78851 2.07279 7.33309 2.78313 8.92101 4.11191C8.97753 4.04662 9.03481 3.99202 9.09191 3.94883C9.101 3.94233 9.10921 3.93588 9.11633 3.93027C9.29398 3.78881 9.47935 3.67566 9.67004 3.58945C10.1335 3.37567 10.6106 3.29491 11.1017 3.34824C11.1842 3.23899 11.2911 3.11914 11.422 2.98691C11.4289 2.97892 11.4369 2.97095 11.4445 2.96348C11.7536 2.62591 12.0211 2.41212 12.2472 2.32383C12.9264 1.99302 13.6673 1.99979 14.4708 2.34238C14.579 2.25583 14.6883 2.18864 14.797 2.14219ZM17.9298 3.90391C17.2816 3.35809 16.608 3.15406 15.9103 3.29258C16.3775 3.71868 16.926 4.30691 17.5558 5.05723C17.6854 5.20847 17.7428 5.38375 17.7267 5.58262C17.7095 5.78185 17.6242 5.94531 17.4718 6.07383C17.3202 6.20358 17.1449 6.26101 16.9464 6.24473C16.7472 6.22671 16.5837 6.14135 16.4552 5.98887C15.5576 4.92235 14.8584 4.22941 14.3575 3.91172L14.3487 3.90977C13.79 3.56224 13.2872 3.4734 12.8409 3.64316C12.7647 3.6885 12.6712 3.76999 12.5607 3.8873C13.167 4.3055 13.9143 5.12884 14.8019 6.35605C14.9168 6.51741 14.959 6.69728 14.9259 6.89512C14.8934 7.09115 14.7959 7.24819 14.6339 7.36387C14.4734 7.48168 14.2936 7.52445 14.0968 7.49277C13.8989 7.46113 13.7405 7.36483 13.6232 7.20371C12.7446 5.98744 12.0532 5.24341 11.548 4.97129C11.0988 4.75561 10.6704 4.73432 10.2638 4.90781C10.1851 4.94282 10.1082 4.98792 10.0343 5.04355C10.0195 5.05959 10.0052 5.07739 9.99133 5.09629C10.5013 5.62189 11.1021 6.3107 11.7931 7.16172C11.9192 7.31613 11.9724 7.49203 11.9523 7.69102C11.9309 7.89087 11.844 8.05271 11.6896 8.1793C11.5353 8.30577 11.3583 8.35958 11.1593 8.33945C10.9603 8.31849 10.7976 8.23039 10.671 8.07578C9.85874 7.07567 9.17904 6.31283 8.63098 5.78769L8.60949 5.77109L8.60754 5.76523C8.6039 5.76247 8.60026 5.7597 8.5968 5.75644C8.58496 5.74695 8.57428 5.73657 8.56359 5.72617C7.04833 4.31438 5.58822 3.54794 4.18371 3.42637C3.56976 3.38178 3.10375 3.43316 2.78527 3.57969C2.62109 3.67398 2.53392 3.82356 2.52355 4.02793V4.04062C2.53525 4.68561 3.01039 5.18886 3.94836 5.54844L3.95617 5.55137C5.35405 6.09502 6.32029 6.57287 6.85461 6.98398C6.87572 6.99928 6.89573 7.01383 6.91516 7.02988C8.30972 8.32923 9.19592 9.4427 9.57336 10.3687C10.0832 11.573 9.91154 12.5228 9.05773 13.2184C8.97838 13.2874 8.88772 13.3365 8.78723 13.3658C8.68653 13.3944 8.58415 13.4006 8.47961 13.3854C8.17096 13.3436 7.77548 13.2213 7.29601 13.0191L7.2882 13.0152C6.6259 12.7437 5.95087 12.4323 5.26281 12.0826C4.68638 11.8071 3.92578 11.7132 2.98058 11.8004L2.98254 11.8062C2.19925 11.8788 1.7036 12.295 1.49621 13.0562L1.49328 13.065C1.43196 13.2838 1.47563 13.4603 1.62512 13.5924C1.95801 13.8303 2.51558 13.9894 3.29504 14.0709L3.29992 14.068C5.40024 14.2899 7.18261 15.2361 8.64758 16.9049C8.65868 16.9197 8.67049 16.9341 8.68078 16.9488C8.71112 16.9882 8.74335 17.0268 8.77844 17.0641C8.79609 17.0821 8.81436 17.1004 8.83215 17.1178L8.83801 17.1227L8.87219 17.1539C9.90779 18.2706 10.9812 18.8065 12.0929 18.7594C12.1965 18.7316 12.3124 18.7332 12.4405 18.7672C12.5979 18.7791 12.7588 18.7839 12.923 18.7818L12.9308 18.7848C13.331 18.7837 13.7423 18.7526 14.1652 18.692H14.1515C14.3092 18.6683 14.4686 18.6408 14.63 18.609L14.6339 18.608C14.6422 18.606 14.6516 18.6036 14.6603 18.6021C14.8331 18.5556 15.0036 18.5032 15.173 18.4488C15.7203 18.2574 16.6683 17.8909 17.3253 17.4371C18.1814 16.8459 19.0899 15.6971 19.298 15.4273C19.5797 14.9862 19.8235 14.5068 20.0265 13.9869L20.0323 13.9576L20.0392 13.942C20.1828 13.5444 20.3016 13.1275 20.3946 12.691L20.4005 12.6881C20.4511 12.4509 20.4909 12.151 20.5187 11.7896L20.5148 11.8111C20.5187 11.7119 20.5211 11.6093 20.5216 11.5035L20.5431 11.0631C20.5769 10.1422 20.5311 9.3078 20.4073 8.56016C20.3012 7.89661 20.1323 7.30471 19.9005 6.78574C19.5239 5.9467 19.1117 5.24595 18.6642 4.68418L18.6612 4.6793C18.424 4.38105 18.1777 4.12184 17.922 3.90195L17.9298 3.90391Z" fill="black"/>
</svg>
